<svg width="48" height="48" viewBox="0 0 48 48" fill="none" xmlns="http://www.w3.org/2000/svg">
  <!-- Bot head/body -->
  <rect x="8" y="12" width="32" height="24" rx="8" fill="#0f172a" stroke="#334155" stroke-width="2"/>
  
  <!-- Eyes -->
  <circle cx="18" cy="22" r="3" fill="#06b6d4"/>
  <circle cx="30" cy="22" r="3" fill="#06b6d4"/>
  
  <!-- Eye highlights -->
  <circle cx="19" cy="21" r="1" fill="#ffffff"/>
  <circle cx="31" cy="21" r="1" fill="#ffffff"/>
  
  <!-- Mouth/display -->
  <rect x="20" y="28" width="8" height="3" rx="1.5" fill="#10b981"/>
  
  <!-- Antenna -->
  <line x1="24" y1="12" x2="24" y2="8" stroke="#334155" stroke-width="2" stroke-linecap="round"/>
  <circle cx="24" cy="6" r="2" fill="#ef4444"/>
  
  <!-- Financial chart symbol on chest -->
  <g transform="translate(20, 18)">
    <path d="M0 6 L2 4 L4 5 L6 2 L8 3" stroke="#10b981" stroke-width="1.5" fill="none" stroke-linecap="round" stroke-linejoin="round"/>
  </g>
  
  <!-- Arms -->
  <rect x="4" y="20" width="6" height="3" rx="1.5" fill="#334155"/>
  <rect x="38" y="20" width="6" height="3" rx="1.5" fill="#334155"/>
  
  <!-- Dollar symbol on left arm -->
  <g transform="translate(6, 20.5)">
    <path d="M1 0.5 Q1.5 0 2 0.5 Q1.5 1 1 0.5 M1.5 0 L1.5 2" stroke="#10b981" stroke-width="0.8" fill="none" stroke-linecap="round"/>
  </g>
  
  <!-- Calculator symbol on right arm -->
  <g transform="translate(40, 20.5)">
    <rect width="2" height="2" fill="#10b981" rx="0.2"/>
  </g>
  
  <!-- Base/legs -->
  <rect x="14" y="36" width="6" height="8" rx="3" fill="#334155"/>
  <rect x="28" y="36" width="6" height="8" rx="3" fill="#334155"/>
  
  <!-- Feet -->
  <ellipse cx="17" cy="44" rx="4" ry="2" fill="#1e293b"/>
  <ellipse cx="31" cy="44" rx="4" ry="2" fill="#1e293b"/>
</svg>